# xmcd
#
# Track frame offsets:
#	150
#	15269
#	26597
#	38508
#	49869
#	60482
#	73250
#	86640
#	102198
#	115745
#	128309
#	139582
#
# Disc length: 2011 seconds
#
# Revision: 1
# Processed by: cddbd v1.5.2PL0 Copyright (c) Steve Scherf et al.
# Submitted via: audiograbber 1.83.01
#
DISCID=8e07d90c
DTITLE=Die STOABRECHA - Fensterstock Hias
DYEAR=2012
DGENRE=Country
TTITLE0=Wenn der Auerhahn balzt
TTITLE1=Grias di Gott Frau Wirtin
TTITLE2=s`Wirtshaus in Zipfelbach
TTITLE3=In Feierstimmung
TTITLE4=Im Wald drausst is schön
TTITLE5=Fensterstock Hias
TTITLE6=Waldweg Landler
TTITLE7=Kehr ich einst zur Heimat wieder
TTITLE8=Der Weltverdruß
TTITLE9=Gretl Boarischer
TTITLE10=Mühlviertler Land
TTITLE11=Alte hau die Hüttn zsamm
EXTD=
EXTT0=
EXTT1=
EXTT2=
EXTT3=
EXTT4=
EXTT5=
EXTT6=
EXTT7=
EXTT8=
EXTT9=
EXTT10=
EXTT11=
PLAYORDER=
